<?xml version="1.0" encoding="UTF-8" standalone="no"?>
<svg width="134px" height="17px" viewBox="0 0 134 17" version="1.1" xmlns="http://www.w3.org/2000/svg" xmlns:xlink="http://www.w3.org/1999/xlink">
    <!-- Generator: sketchtool 39.1 (31720) - http://www.bohemiancoding.com/sketch -->
    <title>6AA6982E-2B12-47E4-AF95-6A9AD08D5543</title>
    <desc>Created with sketchtool.</desc>
    <defs></defs>
    <g id="Page-1" stroke="none" stroke-width="1" fill="none" fill-rule="evenodd">
        <g id="iPhone-6" transform="translate(-119.000000, -18.000000)">
            <g id="mobile-logo" transform="translate(119.000000, 2.000000)">
                <g id="redbull-logo" transform="translate(0.000000, 16.000000)">
                    <g id="Group">
                        <g id="Ebene_1_Kopie" transform="translate(0.972222, 0.157895)">
                            <g id="Group" fill="#DC002E">
                                <path d="M28.8958333,7.26315789 C28.1041667,6.5 27.075,6.02631579 25.9402778,6.02631579 C23.5125,6.02631579 21.5597222,8.15789474 21.5333333,10.8157895 C21.5333333,13.4473684 23.5125,15.6052632 25.9138889,15.6052632 C27.0486111,15.6052632 28.1041667,15.1315789 28.8694444,14.3421053 L28.8694444,15.5263158 L31.7986111,15.5263158 L31.7986111,0 L28.8694444,0 L28.8958333,7.26315789 L28.8958333,7.26315789 Z M26.7583333,13.2368421 C25.5708333,13.2368421 24.5944444,12.1842105 24.5944444,10.8947368 C24.5944444,9.60526316 25.5708333,8.55263158 26.7583333,8.55263158 C27.9458333,8.55263158 28.8958333,9.60526316 28.8958333,10.9210526 C28.8958333,12.1842105 27.9458333,13.2368421 26.7583333,13.2368421 L26.7583333,13.2368421 Z" id="Shape"></path>
                                <path d="M10.0541667,5.15789474 C10.0541667,2.76315789 8.075,0.815789474 5.64722222,0.815789474 L5.14583333,0.815789474 L0,0.789473684 L0,15.4473684 L3.11388889,15.4473684 L3.14027778,3.34210526 L5.01388889,3.34210526 C6.175,3.34210526 7.04583333,4.21052632 7.04583333,5.26315789 C7.04583333,6.31578947 6.09583333,7.18421053 4.96111111,7.18421053 L4.22222222,7.18421053 L4.22222222,10.6842105 L7.33611111,15.5 L11.0041667,15.5 L6.70277778,9.34210526 C8.62916667,8.86842105 10.0541667,7.18421053 10.0541667,5.15789474 L10.0541667,5.15789474 Z" id="Shape"></path>
                                <path d="M15.4375,6.02631579 C12.7458333,6.02631579 10.5819444,8.21052632 10.5819444,10.9210526 C10.5819444,13.6052632 12.7458333,15.8157895 15.4111111,15.8157895 C17.4430556,15.8157895 19.0527778,14.8947368 19.8708333,13.4473684 L17.4958333,12.3684211 C17.1791667,13.0263158 16.4930556,13.4736842 15.6486111,13.4736842 C14.5402778,13.4736842 13.6430556,12.6578947 13.6430556,11.6578947 C13.6430556,11.5789474 13.6166667,11.6052632 13.6166667,11.5526316 L20.1083333,11.5789474 C20.1347222,11.3684211 20.1611111,11.1578947 20.1347222,10.9473684 C20.1875,7.76315789 18.1027778,6.02631579 15.4375,6.02631579 L15.4375,6.02631579 Z M13.6430556,9.84210526 C13.6430556,8.84210526 14.4611111,8.05263158 15.4375,8.05263158 C16.4138889,8.05263158 17.2319444,8.84210526 17.2319444,9.84210526 L13.6430556,9.84210526 L13.6430556,9.84210526 Z" id="Shape"></path>
                                <polygon id="Shape" points="63.5444444 0.157894737 63.5180556 15.5789474 66.4472222 15.5789474 66.4736111 0.157894737"></polygon>
                                <polygon id="Shape" points="58.5569444 15.5526316 61.4861111 15.5789474 61.5125 0.157894737 58.5833333 0.157894737"></polygon>
                                <path d="M44.2013889,7.55263158 C44.9930556,6.81578947 45.4944444,5.78947368 45.4944444,4.71052632 C45.4944444,3.71052632 45.125,2.78947368 44.4388889,2.07894737 C43.7263889,1.31578947 42.5125,0.973684211 40.8236111,0.973684211 L35.8097222,0.947368421 L35.8097222,15.5263158 L42.3013889,15.5263158 C44.7819444,15.5 46.7875,13.6052632 46.7875,11.3157895 C46.7611111,9.65789474 46.1805556,8.44736842 44.2013889,7.55263158 L44.2013889,7.55263158 Z M41.7472222,12.9736842 L38.95,12.9736842 L38.95,3.47368421 L40.9027778,3.47368421 C41.7736111,3.47368421 42.4597222,4.15789474 42.4597222,5.02631579 C42.4597222,5.89473684 41.7472222,6.57894737 40.9027778,6.57894737 L39.8736111,6.57894737 L39.8736111,9.21052632 L41.7472222,9.23684211 C42.7763889,9.23684211 43.5680556,10.0789474 43.5680556,11.1052632 C43.5152778,12.1578947 42.8555556,12.9210526 41.7472222,12.9736842 L41.7472222,12.9736842 Z" id="Shape"></path>
                                <path d="M54.0444444,11.8421053 C54.0444444,12.7105263 53.2791667,13.4473684 52.3819444,13.4473684 C51.4319444,13.4473684 50.6930556,12.7368421 50.6930556,11.8421053 L50.6930556,6.57894737 L47.7902778,6.57894737 L47.7902778,12.4210526 C47.7902778,14.3947368 49.8222222,16 52.3555556,16 C54.8888889,16 56.9472222,14.3947368 56.9472222,12.4210526 L56.9472222,6.57894737 L54.0444444,6.57894737 L54.0444444,11.8421053 L54.0444444,11.8421053 Z" id="Shape"></path>
                            </g>
                            <path d="M77.9,3.76315789 C77.3194444,2.76315789 76.6069444,2.15789474 75.3666667,2.15789474 C74.0472222,2.15789474 72.9125,3.10526316 72.9125,4.44736842 C72.9125,5.71052632 74.2319444,6.28947368 75.2083333,6.73684211 L76.1847222,7.15789474 C78.1111111,8 79.7208333,8.94736842 79.7208333,11.2894737 C79.7208333,13.8684211 77.6625,15.8157895 75.1027778,15.8157895 C72.7277778,15.8157895 70.9861111,14.2894737 70.5111111,12.0263158 L72.1208333,11.5789474 C72.3319444,13.0789474 73.4930556,14.3157895 75.0763889,14.3157895 C76.6597222,14.3157895 78.1111111,13.1052632 78.1111111,11.4473684 C78.1111111,9.73684211 76.7652778,9.15789474 75.3930556,8.52631579 L74.4958333,8.13157895 C72.7805556,7.34210526 71.3027778,6.47368421 71.3027778,4.36842105 C71.3027778,2.07894737 73.2291667,0.631578947 75.4194444,0.631578947 C77.0555556,0.631578947 78.4541667,1.47368421 79.2194444,2.92105263 L77.9,3.76315789 L77.9,3.76315789 Z" id="Shape" fill="#B1B3B4"></path>
                            <polygon id="Shape" fill="#B1B3B4" points="91.1472222 6.86842105 91.1472222 0.894736842 92.7833333 0.894736842 92.7833333 15.5789474 91.1472222 15.5789474 91.1472222 8.39473684 83.6 8.39473684 83.6 15.6052632 81.9638889 15.6052632 81.9638889 0.894736842 83.6 0.894736842 83.6 6.86842105 91.1472222 6.86842105"></polygon>
                            <ellipse id="Oval" fill="#B1B3B4" cx="102.151389" cy="8.23684211" rx="7.65277778" ry="7.63157895"></ellipse>
                            <ellipse id="Oval" fill="#FFFFFF" cx="102.151389" cy="8.23684211" rx="6.30694444" ry="6.28947368"></ellipse>
                            <ellipse id="Oval" fill="#FDC600" cx="102.151389" cy="8.23684211" rx="5.91111111" ry="5.89473684"></ellipse>
                            <g id="Group" transform="translate(88.930556, 2.631579)">
                                <path d="M13.2208333,6.63157895 C13.0361111,6.68421053 12.8513889,6.73684211 12.6930556,6.78947368 C12.7458333,6.89473684 12.825,7.02631579 12.9305556,7.13157895 C12.9833333,7 13.0625,6.89473684 13.1152778,6.78947368 C13.1416667,6.76315789 13.1944444,6.71052632 13.2208333,6.63157895 L13.2208333,6.63157895 Z M3.61527778,7.65789474 C3.48333333,7.47368421 3.35138889,7.10526316 3.24583333,6.57894737 C1.63611111,7 0.765277778,6 0.738888889,5.05263158 C0.7125,4.31578947 0.870833333,4 1.60972222,3.28947368 C0.791666667,3.23684211 0.263888889,2.57894737 0.263888889,2 C0.263888889,1.5 0.343055556,1.36842105 0.422222222,1.18421053 L0.501388889,1.05263158 L0.633333333,1.13157895 C0.633333333,1.13157895 1.26666667,1.5 1.53055556,1.57894737 L1.60972222,1.57894737 L1.79444444,1.57894737 C1.92638889,1.57894737 2.11111111,1.60526316 2.29583333,1.63157895 C2.63888889,1.71052632 3.06111111,1.86842105 3.21944444,2.31578947 C3.37777778,2.73684211 3.325,3.05263158 3.11388889,3.36842105 C3.03472222,3.5 2.90277778,3.65789474 2.77083333,3.78947368 C2.63888889,3.92105263 2.48055556,4.07894737 2.32222222,4.23684211 C2.08472222,4.47368421 1.97916667,4.73684211 2.03194444,4.97368421 C2.08472222,5.26315789 2.34861111,5.36842105 2.6125,5.34210526 C2.92916667,5.31578947 3.24583333,5.10526316 3.5625,4.81578947 C3.72083333,4.68421053 3.90555556,4.52631579 4.06388889,4.36842105 C4.24861111,4.21052632 4.43333333,4.07894737 4.64444444,3.94736842 C4.82916667,3.84210526 4.9875,3.76315789 5.14583333,3.71052632 C5.30416667,3.65789474 5.43611111,3.63157895 5.56805556,3.60526316 C5.80555556,3.55263158 6.01666667,3.5 6.22777778,3.34210526 C6.28055556,3.28947368 6.35972222,3.23684211 6.43888889,3.13157895 C6.51805556,3.02631579 6.62361111,2.92105263 6.72916667,2.84210526 C6.94027778,2.63157895 7.20416667,2.44736842 7.54722222,2.39473684 C7.62638889,2.36842105 7.73194444,2.36842105 7.81111111,2.34210526 C7.91666667,2.31578947 7.96944444,2.31578947 8.02222222,2.28947368 C8.04861111,2.26315789 8.075,2.23684211 8.15416667,2.18421053 C8.20694444,2.13157895 8.25972222,2.05263158 8.33888889,1.97368421 C8.49722222,1.81578947 8.70833333,1.60526316 8.99861111,1.47368421 C9.39444444,1.31578947 9.65833333,1.18421053 9.89583333,1.05263158 C10.1333333,0.921052632 10.3708333,0.763157895 10.6875,0.526315789 C10.8722222,0.342105263 11.7166667,-0.0263157895 12.6666667,0.473684211 C12.9569444,0.631578947 13.1944444,0.789473684 13.4583333,0.973684211 C13.7222222,1.15789474 14.0388889,1.36842105 14.4611111,1.68421053 C14.5930556,1.78947368 14.7513889,1.94736842 14.8833333,2.07894737 C15.0152778,2.23684211 15.1472222,2.36842105 15.2527778,2.47368421 C15.7277778,2.97368421 16.0972222,3.34210526 16.2291667,3.84210526 C16.4402778,4.71052632 16.5722222,5.21052632 16.9944444,6.07894737 L17.0208333,6.10526316 C17.0472222,6.13157895 17.0736111,6.13157895 17.1,6.15789474 L17.1791667,6.23684211 C17.2055556,6.26315789 17.2319444,6.28947368 17.2847222,6.31578947 C17.3375,6.39473684 17.4166667,6.47368421 17.4430556,6.55263158 C17.4958333,6.63157895 17.5486111,6.71052632 17.6013889,6.78947368 C17.7069444,6.94736842 17.8388889,7.05263158 17.9972222,7.13157895 C18.2083333,7.21052632 18.2611111,7.26315789 18.3666667,7.31578947 C18.525,7.44736842 18.4722222,7.65789474 18.3666667,7.78947368 C18.2875,7.86842105 18.1819444,7.92105263 18.0763889,7.94736842 C18.1555556,8.18421053 17.9972222,8.44736842 17.6277778,8.47368421 C16.8625,8.57894737 16.3347222,8.26315789 16.0972222,8.07894737 L16.0708333,8.10526316 C15.9916667,8.15789474 15.8861111,8.26315789 15.7277778,8.34210526 C15.5430556,8.44736842 15.3319444,8.47368421 15.1736111,8.47368421 L14.9097222,8.47368421 C14.8305556,8.47368421 14.7513889,8.47368421 14.6986111,8.5 C14.5666667,8.55263158 14.4083333,8.60526316 14.25,8.68421053 C14.0916667,8.73684211 13.9069444,8.81578947 13.7222222,8.84210526 C13.4055556,8.86842105 13.1680556,8.76315789 13.0361111,8.57894737 C13.0097222,8.55263158 12.9833333,8.5 12.9569444,8.44736842 C12.8513889,8.71052632 12.7458333,8.89473684 12.6138889,9 C12.4819444,9.05263158 12.35,9.10526316 12.2180556,9.13157895 C12.1652778,9.15789474 12.0861111,9.15789474 12.0597222,9.15789474 L12.0069444,9.15789474 C11.5055556,9.44736842 10.6875,9.86842105 10.3708333,9.89473684 C10.0013889,9.94736842 9.57916667,9.68421053 9.34166667,9.28947368 C9.18333333,9.31578947 8.97222222,9.28947368 8.89305556,9.23684211 C8.65555556,9.05263158 8.3125,8.5 8.28611111,8.28947368 C8.25972222,8.13157895 8.36527778,8.02631579 8.44444444,7.94736842 C8.52361111,7.89473684 8.65555556,7.84210526 8.76111111,7.81578947 C8.97222222,7.73684211 9.20972222,7.73684211 9.31527778,7.73684211 L9.42083333,7.73684211 L9.52638889,7.73684211 C9.55277778,7.73684211 9.57916667,7.73684211 9.60555556,7.76315789 C9.65833333,7.65789474 9.81666667,7.60526316 9.92222222,7.57894737 L10.0013889,7.57894737 C9.92222222,7.52631579 9.86944444,7.47368421 9.81666667,7.42105263 C9.79027778,7.44736842 9.76388889,7.44736842 9.71111111,7.47368421 C9.60555556,7.5 9.5,7.55263158 9.34166667,7.57894737 C8.89305556,7.65789474 8.18055556,7.65789474 8.10138889,7.65789474 C7.99583333,7.68421053 7.78472222,7.73684211 7.57361111,7.78947368 C7.38888889,7.84210526 7.20416667,7.86842105 7.04583333,7.89473684 C6.99305556,8.05263158 6.91388889,8.21052632 6.86111111,8.36842105 C6.80833333,8.52631579 6.72916667,8.68421053 6.67638889,8.76315789 C6.59722222,8.89473684 6.46527778,8.97368421 6.38611111,9.05263158 C6.33333333,9.07894737 6.28055556,9.10526316 6.25416667,9.13157895 C6.22777778,9.15789474 6.175,9.18421053 6.175,9.21052632 C6.09583333,9.26315789 5.9375,9.36842105 5.77916667,9.47368421 C5.62083333,9.55263158 5.43611111,9.65789474 5.25138889,9.63157895 C4.82916667,9.60526316 4.53888889,9.60526316 4.40694444,9.60526316 C4.35416667,9.60526316 4.30138889,9.63157895 4.19583333,9.71052632 C4.16944444,9.73684211 4.11666667,9.78947368 4.06388889,9.81578947 C4.01111111,9.86842105 3.98472222,9.92105263 3.93194444,9.97368421 C3.74722222,10.1578947 3.48333333,10.3947368 3.0875,10.4210526 L2.90277778,10.4210526 C2.87638889,10.4210526 2.82361111,10.4210526 2.77083333,10.3947368 C2.74444444,10.4210526 2.71805556,10.4736842 2.69166667,10.5263158 C2.66527778,10.5526316 2.66527778,10.6052632 2.63888889,10.6315789 C2.6125,10.6842105 2.58611111,10.7105263 2.55972222,10.7631579 C2.45416667,10.9473684 2.26944444,11.1052632 1.92638889,11.1578947 L1.84722222,11.1578947 L1.74166667,11.1578947 C1.68888889,11.1578947 1.58333333,11.1315789 1.50416667,11.1315789 C1.425,11.1315789 1.34583333,11.1052632 1.26666667,11.1052632 L1.1875,11.1052632 C1.16111111,11.1315789 1.13472222,11.1578947 1.13472222,11.1578947 C1.10833333,11.1842105 1.05555556,11.2105263 1.00277778,11.2105263 L0.606944444,11.2105263 C0.527777778,11.1842105 0.422222222,11.1842105 0.343055556,11.1315789 C0.263888889,11.1052632 0.158333333,11.0263158 0.131944444,10.9210526 C0.0791666667,10.7631579 0.0791666667,10.6578947 0.131944444,10.5526316 C0.158333333,10.5 0.184722222,10.4736842 0.184722222,10.4473684 C0.184722222,10.4210526 0.211111111,10.3947368 0.211111111,10.3421053 C0.211111111,10.2631579 0.2375,10.1842105 0.2375,10.1052632 C0.263888889,10.0263158 0.263888889,9.94736842 0.290277778,9.84210526 C0.343055556,9.65789474 0.475,9.5 0.738888889,9.44736842 L0.765277778,9.42105263 C0.897222222,8.97368421 1.34583333,8.68421053 1.63611111,8.68421053 L1.6625,8.68421053 C1.9,8.71052632 2.05833333,8.81578947 2.1375,8.97368421 C2.19027778,8.92105263 2.24305556,8.86842105 2.24305556,8.81578947 C2.24305556,8.78947368 2.24305556,8.76315789 2.26944444,8.76315789 C2.26944444,8.73684211 2.29583333,8.68421053 2.29583333,8.65789474 C2.32222222,8.57894737 2.34861111,8.47368421 2.34861111,8.39473684 C2.40138889,8.21052632 2.50694444,7.94736842 2.77083333,7.92105263 C3.00833333,7.89473684 3.24583333,7.84210526 3.40416667,7.76315789 C3.5625,7.68421053 3.58888889,7.65789474 3.61527778,7.65789474 L3.61527778,7.65789474 Z" id="Shape" fill="#FFFFFF"></path>
                                <g transform="translate(0.527778, 0.526316)" id="Shape">
                                    <path d="M0.659722222,9.47368421 L0.659722222,9.55263158 C0.580555556,9.76315789 0.554166667,10.0263158 0.527777778,10.2894737 C0.343055556,10.2894737 0.211111111,10.2368421 0.0791666667,10.2105263 C0.0527777778,10.1842105 0.0527777778,10.1315789 0.0791666667,10.0789474 C0.2375,9.92105263 0.158333333,9.73684211 0.184722222,9.55263158 C0.211111111,9.44736842 0.290277778,9.34210526 0.395833333,9.26315789 C0.501388889,9.28947368 0.606944444,9.42105263 0.659722222,9.47368421 L0.659722222,9.47368421 Z M1.39861111,8.65789474 C1.31944444,8.84210526 1.21388889,9.07894737 1.02916667,9.18421053 C0.95,9.21052632 0.870833333,9.21052632 0.791666667,9.18421053 C0.738888889,9.15789474 0.686111111,9.10526316 0.659722222,9.05263158 C0.659722222,9 0.633333333,8.89473684 0.686111111,8.84210526 C0.818055556,8.73684211 0.976388889,8.63157895 1.08194444,8.5 C1.13472222,8.47368421 1.1875,8.44736842 1.21388889,8.47368421 C1.29305556,8.55263158 1.37222222,8.60526316 1.39861111,8.65789474 L1.39861111,8.65789474 Z M10.3972222,7.71052632 C10.4236111,7.78947368 10.5555556,7.86842105 10.4763889,7.94736842 C10.3444444,8.07894737 10.1861111,8.15789474 10.0013889,8.15789474 C9.84305556,8.07894737 9.84305556,7.84210526 9.68472222,7.73684211 C9.65833333,7.63157895 9.47361111,7.65789474 9.5,7.52631579 L9.55277778,7.5 C9.7375,7.47368421 9.94861111,7.44736842 10.1333333,7.39473684 C10.3444444,7.36842105 10.2916667,7.60526316 10.3972222,7.71052632 L10.3972222,7.71052632 Z M0.976388889,1.36842105 C1.425,1.44736842 1.87361111,1.39473684 2.24305556,1.71052632 C2.45416667,1.92105263 2.50694444,2.28947368 2.375,2.52631579 C2.16388889,2.97368421 1.68888889,3.26315789 1.425,3.65789474 C1.16111111,3.94736842 1.05555556,4.36842105 1.21388889,4.73684211 C1.34583333,5.05263158 1.71527778,5.26315789 2.05833333,5.26315789 C2.58611111,5.23684211 2.98194444,4.92105263 3.37777778,4.63157895 C3.77361111,4.28947368 4.14305556,3.86842105 4.61805556,3.68421053 C4.93472222,3.52631579 5.30416667,3.55263158 5.59444444,3.39473684 C5.9375,3.28947368 6.175,2.97368421 6.4125,2.71052632 C6.70277778,2.42105263 7.04583333,2.26315789 7.44166667,2.23684211 C7.81111111,2.26315789 7.96944444,1.92105263 8.20694444,1.68421053 C8.57638889,1.28947368 9.13055556,1.18421053 9.57916667,0.921052632 C9.89583333,0.789473684 10.1597222,0.5 10.45,0.315789474 C10.7402778,0.157894737 11.1625,0.105263158 11.4791667,0.184210526 C11.6902778,0.263157895 11.9013889,0.315789474 12.0861111,0.447368421 L13.6694444,1.52631579 C13.6958333,1.57894737 13.7486111,1.60526316 13.8013889,1.63157895 C14.25,2.10526316 14.7513889,2.55263158 15.1208333,3.05263158 C15.2527778,3.23684211 15.3055556,3.44736842 15.3847222,3.63157895 C15.5430556,4.44736842 15.8333333,5.13157895 16.1763889,5.84210526 C16.2555556,5.94736842 16.4138889,6 16.4930556,6.10526316 C16.7569444,6.39473684 16.9416667,6.78947368 17.3375,6.97368421 L17.575,7.05263158 C17.575,7.07894737 17.6013889,7.10526316 17.575,7.13157895 L17.5486111,7.15789474 C17.1,7.28947368 16.7305556,7.02631579 16.4666667,6.73684211 C16.3083333,6.47368421 16.0708333,6.18421053 15.7277778,6.07894737 C15.7013889,6.07894737 15.7013889,6.10526316 15.675,6.10526316 C15.7277778,6.18421053 15.8333333,6.26315789 15.8861111,6.36842105 C16.0180556,6.55263158 16.15,6.76315789 16.2291667,6.97368421 C16.3083333,7.18421053 16.5986111,7.34210526 16.8097222,7.44736842 L17.1263889,7.55263158 C17.1791667,7.57894737 17.1791667,7.63157895 17.1527778,7.65789474 L17.1,7.68421053 C16.625,7.73684211 16.1763889,7.63157895 15.8069444,7.31578947 C15.7013889,7.23684211 15.5958333,7.15789474 15.4902778,7.18421053 C15.3055556,7.39473684 15.0944444,7.60526316 14.8041667,7.65789474 C14.5138889,7.63157895 14.1708333,7.65789474 13.9069444,7.81578947 C13.6694444,7.92105263 13.4319444,8.05263158 13.1680556,8.07894737 C13.0361111,8.07894737 12.8777778,8.05263158 12.825,7.92105263 C12.7986111,7.76315789 12.6666667,7.60526316 12.7722222,7.42105263 L12.9305556,7.13157895 C12.9305556,7.07894737 12.9041667,7.07894737 12.8513889,7.05263158 C12.7722222,7.05263158 12.6666667,7.18421053 12.6138889,7.05263158 C12.6138889,6.76315789 12.8513889,6.57894737 13.0361111,6.36842105 C13.0625,6.13157895 13.1152778,5.94736842 13.2736111,5.76315789 C13.2736111,5.73684211 13.2472222,5.71052632 13.2208333,5.71052632 C12.9833333,5.76315789 12.7722222,5.84210526 12.5083333,5.86842105 C12.3236111,6 12.0861111,6.07894737 11.8486111,6.05263158 C11.7958333,6.02631579 11.7958333,5.97368421 11.8222222,5.92105263 C12.0333333,5.55263158 12.0861111,5.13157895 11.9805556,4.71052632 C11.9541667,4.68421053 11.9013889,4.65789474 11.875,4.65789474 C11.8222222,4.65789474 11.7958333,4.71052632 11.7958333,4.73684211 C11.7694444,5.13157895 11.7430556,5.44736842 11.5847222,5.78947368 C11.4527778,5.97368421 11.1888889,6 10.9777778,6.07894737 C10.925,6.10526316 10.8722222,6.15789474 10.8986111,6.21052632 C10.8986111,6.34210526 11.0041667,6.44736842 11.0833333,6.55263158 L11.6111111,7.36842105 C11.6638889,7.60526316 11.5583333,7.84210526 11.5319444,8.05263158 C11.5583333,8.07894737 11.5847222,8.07894737 11.6111111,8.05263158 C11.7694444,7.89473684 11.8486111,7.68421053 11.9013889,7.47368421 C11.9013889,7.36842105 11.8486111,7.26315789 11.8222222,7.21052632 L11.2416667,6.28947368 C11.2680556,6.23684211 11.3472222,6.23684211 11.4,6.21052632 C11.5055556,6.18421053 11.6111111,6.23684211 11.7166667,6.26315789 C11.8486111,6.55263158 12.0069444,6.84210526 12.2444444,7.05263158 C12.2972222,7.21052632 12.3763889,7.42105263 12.2708333,7.57894737 C12.1916667,7.78947368 12.0861111,8 11.9805556,8.21052632 C11.875,8.34210526 11.6902778,8.36842105 11.5055556,8.39473684 L11.3472222,8.42105263 C10.9513889,8.68421053 10.5027778,8.86842105 10.0541667,9.05263158 C9.86944444,9.15789474 9.60555556,9.13157895 9.44722222,9 C9.2625,8.89473684 9.18333333,8.71052632 9.05138889,8.55263158 C8.91944444,8.39473684 8.73472222,8.55263158 8.57638889,8.5 C8.44444444,8.31578947 8.28611111,8.10526316 8.15416667,7.92105263 C8.15416667,7.86842105 8.15416667,7.81578947 8.18055556,7.76315789 C8.33888889,7.68421053 8.52361111,7.65789474 8.68194444,7.63157895 C8.86666667,7.60526316 9.025,7.63157895 9.15694444,7.73684211 C9.39444444,7.97368421 9.5,8.28947368 9.84305556,8.44736842 C10.1069444,8.44736842 10.3180556,8.34210526 10.5027778,8.21052632 C10.6347222,8.13157895 10.7666667,8 10.7402778,7.84210526 C10.6875,7.52631579 10.45,7.28947368 10.1861111,7.13157895 C9.89583333,7.02631579 9.60555556,6.84210526 9.36805556,6.60526316 C9.2625,6.47368421 9.20972222,6.31578947 9.13055556,6.15789474 C9.10416667,6.13157895 9.025,6.13157895 8.97222222,6.13157895 C8.86666667,6.23684211 8.97222222,6.28947368 8.99861111,6.39473684 C9.025,6.47368421 9.025,6.55263158 8.97222222,6.63157895 C8.84027778,6.76315789 8.68194444,6.73684211 8.47083333,6.76315789 C8.075,6.76315789 7.73194444,6.76315789 7.30972222,6.84210526 C6.91388889,6.89473684 6.38611111,7.18421053 6.04305556,6.81578947 C5.85833333,6.44736842 5.9375,6 5.99027778,5.60526316 C5.99027778,5.55263158 5.91111111,5.52631579 5.88472222,5.52631579 C5.85833333,5.52631579 5.75277778,5.55263158 5.75277778,5.57894737 C5.7,5.94736842 5.7,6.36842105 5.64722222,6.76315789 C5.54166667,7.10526316 5.33055556,7.42105263 4.9875,7.63157895 C4.69722222,7.81578947 4.32777778,7.92105263 3.95833333,7.97368421 C3.27222222,8.05263158 2.66527778,8.26315789 2.29583333,8.86842105 C2.26944444,8.92105263 2.21666667,9.05263158 2.24305556,9.13157895 C2.26944444,9.15789474 2.32222222,9.15789474 2.34861111,9.13157895 C2.77083333,8.55263158 3.35138889,8.28947368 4.01111111,8.26315789 C4.90833333,8.18421053 5.25138889,8.07894737 5.64722222,7.42105263 C5.72638889,7.28947368 5.80555556,7.15789474 5.88472222,7.02631579 C5.96388889,7 6.01666667,7.10526316 6.06944444,7.13157895 C6.09583333,7.31578947 5.96388889,7.47368421 5.91111111,7.63157895 C5.83194444,7.81578947 5.77916667,8.05263158 5.59444444,8.15789474 C5.38333333,8.23684211 5.225,8.39473684 5.04027778,8.52631579 C4.85555556,8.63157895 4.61805556,8.71052632 4.38055556,8.65789474 C4.09027778,8.63157895 3.66805556,8.60526316 3.40416667,8.76315789 C3.27222222,8.86842105 3.16666667,9.05263158 3.03472222,9.15789474 C2.82361111,9.26315789 2.66527778,9.44736842 2.42777778,9.47368421 C2.26944444,9.44736842 2.05833333,9.36842105 1.92638889,9.52631579 C1.76805556,9.71052632 1.74166667,10 1.53055556,10.1315789 C1.26666667,10.2894737 0.976388889,10.1842105 0.7125,10.1842105 C0.738888889,9.92105263 0.738888889,9.65789474 0.897222222,9.44736842 C1.00277778,9.42105263 1.08194444,9.39473684 1.16111111,9.31578947 C1.26666667,9.21052632 1.34583333,9.07894737 1.39861111,8.94736842 C1.60972222,8.78947368 1.87361111,8.63157895 2.00555556,8.36842105 C2.08472222,8.13157895 2.08472222,7.89473684 2.24305556,7.68421053 L2.32222222,7.63157895 L2.90277778,7.63157895 C3.0875,7.52631579 3.27222222,7.42105263 3.43055556,7.26315789 C3.48333333,7.18421053 3.48333333,7.10526316 3.45694444,7.02631579 C3.35138889,6.78947368 3.24583333,6.63157895 3.16666667,6.39473684 C3.0875,6.13157895 3.0875,5.89473684 3.03472222,5.60526316 C3.00833333,5.57894737 2.98194444,5.55263158 2.95555556,5.52631579 C2.63888889,5.60526316 2.34861111,5.73684211 1.97916667,5.73684211 C1.47777778,5.71052632 0.95,5.44736842 0.738888889,5 C0.527777778,4.60526316 0.527777778,4 0.791666667,3.65789474 C1.05555556,3.26315789 1.39861111,2.94736842 1.71527778,2.63157895 C1.76805556,2.57894737 1.76805556,2.52631579 1.76805556,2.44736842 C1.76805556,2.36842105 1.68888889,2.31578947 1.60972222,2.28947368 C1.39861111,2.26315789 1.13472222,2.36842105 0.923611111,2.28947368 C0.527777778,2.18421053 0.211111111,1.86842105 0.131944444,1.47368421 C0.105555556,1.28947368 0.105555556,1.15789474 0.184722222,1 C0.448611111,1.13157895 0.686111111,1.31578947 0.976388889,1.36842105 L0.976388889,1.36842105 Z" fill="#DC002E"></path>
                                    <path d="M12.0861111,3.07894737 L12.0861111,3.07894737 L12.0861111,3.07894737 C12.0597222,3.13157895 12.0069444,3.13157895 11.9805556,3.13157895 L11.9541667,3.13157895 L11.9541667,3.10526316 C11.875,2.84210526 11.7958333,2.60526316 11.6638889,2.36842105 C11.6375,2.34210526 11.6111111,2.31578947 11.5847222,2.28947368 C11.5583333,2.26315789 11.5319444,2.23684211 11.5055556,2.18421053 C11.4527778,2.10526316 11.4263889,2.02631579 11.4527778,1.92105263 L11.4527778,1.89473684 C11.5055556,1.84210526 11.5847222,1.81578947 11.6375,1.84210526 L11.6638889,1.84210526 C11.7694444,1.89473684 11.8486111,2 11.9013889,2.10526316 C12.1125,2.39473684 12.1388889,2.76315789 12.0861111,3.07894737 L12.0861111,3.07894737 Z" fill="#FFFFFF"></path>
                                    <path d="M15.4375,5.15789474 C15.4375,5.18421053 15.4111111,5.18421053 15.4111111,5.21052632 L15.4111111,5.26315789 C15.4111111,5.31578947 15.3847222,5.34210526 15.3319444,5.36842105 C15.2791667,5.39473684 15.2,5.34210526 15.2,5.28947368 C15.1736111,5.21052632 15.1736111,5.13157895 15.1472222,5.05263158 C15.1208333,4.97368421 15.0944444,4.92105263 15.0416667,4.84210526 C15.0152778,4.81578947 14.9888889,4.78947368 14.9361111,4.76315789 C14.9097222,4.73684211 14.8569444,4.68421053 14.8305556,4.65789474 C14.7513889,4.60526316 14.6986111,4.55263158 14.6194444,4.57894737 C14.5666667,4.60526316 14.5138889,4.63157895 14.4875,4.68421053 C14.4611111,4.71052632 14.4347222,4.73684211 14.4347222,4.76315789 L14.3819444,4.84210526 C14.3555556,4.89473684 14.3027778,4.86842105 14.3027778,4.86842105 L14.2763889,4.86842105 L14.2763889,4.84210526 C14.2236111,4.73684211 14.25,4.65789474 14.2763889,4.55263158 C14.3027778,4.47368421 14.3555556,4.39473684 14.3555556,4.31578947 L14.3555556,4.28947368 C14.3555556,4.26315789 14.3819444,4.23684211 14.4083333,4.21052632 C14.4083333,4.15789474 14.4347222,4.13157895 14.4347222,4.07894737 C14.4875,3.97368421 14.5402778,3.92105263 14.6986111,3.94736842 C14.7777778,3.97368421 14.8569444,4.05263158 14.9097222,4.10526316 C14.9361111,4.13157895 14.9625,4.15789474 14.9888889,4.21052632 C15.0152778,4.23684211 15.0416667,4.26315789 15.0680556,4.28947368 C15.3055556,4.55263158 15.4902778,4.81578947 15.4375,5.15789474 L15.4375,5.15789474 Z" fill="#FFFFFF"></path>
                                    <path d="M14.8305556,6.92105263 L14.8305556,6.92105263 L14.8305556,6.92105263 C14.6986111,6.97368421 14.5666667,7 14.4347222,7 L14.4347222,7 L14.4347222,7 L14.4083333,7 L14.3819444,7 C14.3555556,6.97368421 14.3291667,6.94736842 14.3555556,6.92105263 C14.4083333,6.73684211 14.5402778,6.55263158 14.7513889,6.47368421 L14.7513889,6.47368421 L14.8041667,6.47368421 L14.8569444,6.47368421 C14.8833333,6.47368421 14.9361111,6.5 14.9361111,6.55263158 C14.9361111,6.65789474 14.9625,6.81578947 14.8305556,6.92105263 L14.8305556,6.92105263 Z" fill="#FFFFFF"></path>
                                </g>
                            </g>
                            <g id="Group" transform="translate(111.625000, 0.789474)" fill="#B1B3B4">
                                <path d="M1.63611111,14.7894737 L0,14.7894737 L0,0.105263158 L2.42777778,0.105263158 C3.69444444,0.105263158 5.01388889,0.131578947 6.06944444,0.894736842 C7.15138889,1.65789474 7.73194444,2.94736842 7.73194444,4.23684211 C7.73194444,5.42105263 7.23055556,6.63157895 6.33333333,7.39473684 C5.33055556,8.21052632 4.06388889,8.36842105 2.85,8.36842105 L1.6625,8.36842105 L1.6625,14.7894737 L1.63611111,14.7894737 Z M1.63611111,6.84210526 L2.71805556,6.84210526 C4.53888889,6.84210526 6.06944444,6.31578947 6.06944444,4.21052632 C6.06944444,1.81578947 4.14305556,1.63157895 2.21666667,1.63157895 L1.60972222,1.63157895 L1.60972222,6.84210526 L1.63611111,6.84210526 Z" id="Shape"></path>
                                <g transform="translate(9.236111, 6.842105)" id="Shape">
                                    <path d="M0.897222222,4.89473684 C0.897222222,5.47368421 0.870833333,6.10526316 1.24027778,6.60526316 C1.58333333,7.07894737 2.21666667,7.34210526 2.79722222,7.34210526 C3.35138889,7.34210526 3.95833333,7.07894737 4.30138889,6.65789474 C4.69722222,6.18421053 4.67083333,5.5 4.67083333,4.89473684 L4.67083333,0.342105263 L5.51527778,0.342105263 L5.51527778,5.13157895 C5.51527778,5.97368421 5.4625,6.63157895 4.85555556,7.26315789 C4.32777778,7.84210526 3.5625,8.13157895 2.79722222,8.13157895 C2.08472222,8.13157895 1.31944444,7.86842105 0.818055556,7.34210526 C0.158333333,6.71052632 0.0527777778,6 0.0527777778,5.13157895 L0.0527777778,0.342105263 L0.897222222,0.342105263 L0.897222222,4.89473684 L0.897222222,4.89473684 Z"></path>
                                    <path d="M10.5291667,1.84210526 C10.2125,1.31578947 9.86944444,1 9.20972222,1 C8.52361111,1 7.94305556,1.5 7.94305556,2.18421053 C7.94305556,2.84210526 8.62916667,3.15789474 9.13055556,3.36842105 L9.63194444,3.57894737 C10.6347222,4.02631579 11.4791667,4.5 11.4791667,5.73684211 C11.4791667,7.07894737 10.3972222,8.10526316 9.07777778,8.10526316 C7.8375,8.10526316 6.94027778,7.31578947 6.67638889,6.13157895 L7.52083333,5.89473684 C7.62638889,6.68421053 8.23333333,7.31578947 9.05138889,7.31578947 C9.86944444,7.31578947 10.6347222,6.68421053 10.6347222,5.81578947 C10.6347222,4.92105263 9.92222222,4.63157895 9.20972222,4.28947368 L8.73472222,4.07894737 C7.8375,3.68421053 7.07222222,3.21052632 7.07222222,2.13157895 C7.07222222,0.947368421 8.075,0.184210526 9.20972222,0.184210526 C10.0541667,0.184210526 10.7930556,0.631578947 11.1888889,1.36842105 L10.5291667,1.84210526 L10.5291667,1.84210526 Z"></path>
                                </g>
                            </g>
                        </g>
                    </g>
                </g>
            </g>
        </g>
    </g>
</svg>